HIERARCHY
ROOT Hips
{
 OFFSET 0.000000 0.000000 0.000000
 CHANNELS 6 Xposition Yposition Zposition Yrotation Xrotation Zrotation
 JOINT Chest
 {
  OFFSET 0.000000 10.383400 0.001500
  CHANNELS 3 Yrotation Xrotation Zrotation
  JOINT Chest2
  {
   OFFSET 0.000000 10.418200 -0.003100
   CHANNELS 3 Yrotation Xrotation Zrotation
   JOINT Chest3
   {
    OFFSET 0.000000 10.375100 0.000000
    CHANNELS 3 Yrotation Xrotation Zrotation
    JOINT Chest4
    {
     OFFSET 0.000000 10.364600 0.000000
     CHANNELS 3 Yrotation Xrotation Zrotation
     JOINT Neck
     {
      OFFSET 0.000000 15.642200 0.000000
      CHANNELS 3 Yrotation Xrotation Zrotation
      JOINT Head
      {
       OFFSET 0.000000 9.697300 -0.006500
       CHANNELS 3 Yrotation Xrotation Zrotation
       End Site
       {
        OFFSET 0.000000 18.492200 -0.003400
       }
      }
     }
     JOINT RightCollar
     {
      OFFSET -3.166800 10.349300 0.000000
      CHANNELS 3 Yrotation Xrotation Zrotation
      JOINT RightShoulder
      {
       OFFSET -14.729700 0.000000 0.000000
       CHANNELS 3 Yrotation Xrotation Zrotation
       JOINT RightElbow
       {
        OFFSET 0.000000 -32.224300 0.000000
        CHANNELS 3 Yrotation Xrotation Zrotation
        JOINT RightWrist
        {
         OFFSET 0.000000 -26.084100 0.000000
         CHANNELS 3 Yrotation Xrotation Zrotation
         End Site
         {
          OFFSET 0.000000 -19.319400 0.000000
         }
        }
       }
      }
     }
     JOINT LeftCollar
     {
      OFFSET 3.166800 10.349300 0.000000
      CHANNELS 3 Yrotation Xrotation Zrotation
      JOINT LeftShoulder
      {
       OFFSET 14.729700 0.000000 0.000000
       CHANNELS 3 Yrotation Xrotation Zrotation
       JOINT LeftElbow
       {
        OFFSET 0.000000 -32.224300 0.000000
        CHANNELS 3 Yrotation Xrotation Zrotation
        JOINT LeftWrist
        {
         OFFSET 0.000000 -26.084100 0.000000
         CHANNELS 3 Yrotation Xrotation Zrotation
         End Site
         {
          OFFSET 0.000000 -19.319400 0.000000
         }
        }
       }
      }
     }
    }
   }
  }
 }
 JOINT RightHip
 {
  OFFSET -8.428900 -0.007500 -0.000800
  CHANNELS 3 Yrotation Xrotation Zrotation
  JOINT RightKnee
  {
   OFFSET 0.000000 -43.834600 0.000700
   CHANNELS 3 Yrotation Xrotation Zrotation
   JOINT RightAnkle
   {
    OFFSET 0.000000 -42.757000 0.001200
    CHANNELS 3 Yrotation Xrotation Zrotation
    JOINT RightToe
    {
     OFFSET 0.000000 -6.946900 15.649300
     CHANNELS 3 Yrotation Xrotation Zrotation
     End Site
     {
      OFFSET 0.000000 -1.580800 6.825800
     }
    }
   }
  }
 }
 JOINT LeftHip
 {
  OFFSET 8.428900 -0.007500 -0.000800
  CHANNELS 3 Yrotation Xrotation Zrotation
  JOINT LeftKnee
  {
   OFFSET 0.000000 -43.834600 0.000700
   CHANNELS 3 Yrotation Xrotation Zrotation
   JOINT LeftAnkle
   {
    OFFSET 0.000000 -42.757000 0.001200
    CHANNELS 3 Yrotation Xrotation Zrotation
    JOINT LeftToe
    {
     OFFSET 0.000000 -6.946900 15.649300
     CHANNELS 3 Yrotation Xrotation Zrotation
     End Site
     {
      OFFSET 0.000000 -1.580800 6.825800
     }
    }
   }
  }
 }
}
MOTION
Frames: 9
Frame Time: 0.008333
0.000000 93.354300 0.000000 0.000000 -5.767877 0.000000 0.000000 11.653817 0.000000 0.000000 -5.885947 0.000000 0.000000 -0.000000 0.000000 0.000000 -0.000000 0.000000 0.000000 12.528835 0.000000 0.000000 0.711642 0.000000 0.000000 -0.000000 0.000000 0.000000 0.000000 -90.000000 0.000000 -2.309062 0.000000 0.000000 2.309062 0.000000 0.000000 -0.000000 0.000000 0.000000 -0.000000 90.000000 0.000000 -2.309062 0.000000 0.000000 2.309062 0.000000 0.000000 8.520406 0.000000 0.000000 1.905762 0.000000 -0.000000 -4.658285 0.000000 0.000000 -0.000000 0.000000 0.000000 8.520406 0.000000 0.000000 1.905762 0.000000 -0.000000 -4.658285 0.000000 0.000000 -0.000000 0.000000
124.536939 126.944953 30.859617 -14.136002 -28.358751 -1.240925 -2.442558 14.568823 1.592323 -0.236713 1.317042 0.169077 -0.397923 2.220362 0.279181 -2.198511 13.031299 1.455727 1.511363 16.573963 -1.113097 3.192268 -4.969539 -2.591582 -1.875104 -5.121655 -4.720538 7.985335 -14.401891 -7.140414 27.213033 -38.189974 2.476639 5.384921 7.581028 -17.909153 -2.901449 -7.076782 -1.942712 -0.813514 -4.018853 3.499699 -35.735162 -47.711150 12.258366 -23.777574 9.685499 16.652565 -4.625634 -40.175124 -2.848048 -30.769629 79.733487 -30.457059 3.168735 -10.546005 3.741580 0.001110 -0.007857 0.000493 -4.285049 -32.949304 -6.673374 -2.293514 73.976150 0.847461 -11.727249 -10.566957 -1.377890 0.000867 0.000097 0.000385
124.536252 126.944994 30.859640 -14.131675 -28.360193 -1.251038 -2.444557 14.569963 1.596956 -0.236685 1.317404 0.169135 -0.400664 2.221348 0.277990 -2.203082 13.032028 1.454129 1.520410 16.573590 -1.110615 3.196708 -4.971417 -2.590921 -1.861646 -5.115421 -4.717480 7.979006 -14.405928 -7.142013 27.214819 -38.192589 2.472673 5.390504 7.575952 -17.914165 -2.888125 -7.073962 -1.938513 -0.810160 -4.017308 3.495443 -35.741634 -47.715757 12.259603 -23.774092 9.686350 16.656426 -4.633544 -40.170305 -2.836115 -30.802876 79.731935 -30.490358 3.167683 -10.551358 3.745457 0.000413 -0.007374 0.000183 -4.292419 -32.948328 -6.664677 -2.308924 73.979413 0.828709 -11.712570 -10.568218 -1.379319 0.000744 0.000177 0.000330
124.536666 126.944763 30.859551 -14.130465 -28.358813 -1.254327 -2.451175 14.570977 1.590422 -0.233230 1.315669 0.171998 -0.399674 2.221525 0.281115 -2.206976 13.033656 1.454717 1.521669 16.570741 -1.112746 3.206256 -4.970948 -2.591378 -1.852652 -5.113304 -4.718296 7.987111 -14.394360 -7.151766 27.202904 -38.206632 2.468083 5.399110 7.567061 -17.919868 -2.877910 -7.069403 -1.943333 -0.805052 -4.018014 3.495746 -35.748491 -47.720765 12.260741 -23.766784 9.684798 16.665715 -4.631263 -40.169338 -2.833781 -30.820706 79.729680 -30.508046 3.166821 -10.554430 3.750905 -0.001086 -0.006497 -0.000482 -4.291442 -32.949864 -6.664910 -2.312337 73.980643 0.826620 -11.706490 -10.568841 -1.381168 0.001037 -0.000023 0.000460
124.537177 126.944602 30.859672 -14.131738 -28.358171 -1.255517 -2.452342 14.572282 1.589000 -0.234733 1.315492 0.172055 -0.397645 2.220753 0.282407 -2.208119 13.036182 1.456420 1.523675 16.567848 -1.113846 3.212868 -4.969669 -2.593961 -1.846893 -5.111955 -4.720316 7.992064 -14.390702 -7.159020 27.197120 -38.219962 2.461333 5.401761 7.571911 -17.930848 -2.872520 -7.071416 -1.945578 -0.803850 -4.017372 3.495038 -35.724674 -47.732678 12.252499 -23.783794 9.681902 16.649950 -4.630687 -40.169167 -2.830694 -30.820482 79.729703 -30.511419 3.167236 -10.557485 3.756242 -0.001782 -0.007149 -0.000791 -4.278674 -32.949543 -6.672701 -2.327998 73.984393 0.821979 -11.699210 -10.573359 -1.382197 0.000623 -0.000206 0.000277
124.536571 126.944600 30.859810 -14.133523 -28.359196 -1.261852 -2.449057 14.576291 1.595204 -0.237457 1.314998 0.170830 -0.397907 2.221806 0.283090 -2.205329 13.034451 1.458493 1.523844 16.570556 -1.113589 3.217812 -4.971376 -2.596917 -1.852681 -5.106227 -4.723006 8.004938 -14.389224 -7.162832 27.187577 -38.230399 2.459810 5.406942 7.577178 -17.925284 -2.864712 -7.070084 -1.947910 -0.810329 -4.018659 3.493139 -35.718702 -47.739004 12.253604 -23.782655 9.680019 16.643859 -4.633269 -40.167089 -2.820712 -30.827001 79.729070 -30.518506 3.168899 -10.558410 3.755843 -0.001375 -0.007850 -0.000610 -4.275207 -32.947903 -6.667004 -2.329679 73.987821 0.822197 -11.699168 -10.577272 -1.379427 0.000462 0.000089 0.000205
124.537044 126.944263 30.859556 -14.131490 -28.356180 -1.264011 -2.448630 14.575995 1.597847 -0.240758 1.314792 0.167734 -0.398212 2.221697 0.283042 -2.207490 13.034141 1.457798 1.527813 16.571256 -1.113180 3.220346 -4.972996 -2.596152 -1.847842 -5.103379 -4.721623 8.006708 -14.388831 -7.164482 27.182600 -38.235336 2.458267 5.407634 7.582484 -17.920983 -2.848977 -7.066934 -1.947986 -0.821204 -4.021625 3.487436 -35.720907 -47.740026 12.260322 -23.776099 9.676184 16.647710 -4.633600 -40.170277 -2.820768 -30.847426 79.730942 -30.538990 3.172952 -10.561020 3.756614 -0.002568 -0.007613 -0.001140 -4.273950 -32.950889 -6.669951 -2.332667 73.989916 0.820405 -11.685832 -10.579724 -1.379739 0.001149 0.000439 0.000510
124.538660 126.943878 30.859457 -14.122043 -28.352675 -1.262721 -2.455469 14.575614 1.593796 -0.239906 1.317479 0.169732 -0.398818 2.219498 0.282228 -2.214964 13.035551 1.455747 1.533866 16.569471 -1.113745 3.226203 -4.972184 -2.596834 -1.846078 -5.101721 -4.725597 8.007673 -14.391153 -7.161824 27.178381 -38.240588 2.455003 5.419243 7.584295 -17.913293 -2.843603 -7.071826 -1.948733 -0.825916 -4.022805 3.482922 -35.714683 -47.739503 12.262570 -23.773430 9.674193 16.649541 -4.632585 -40.174477 -2.829793 -30.863345 79.736026 -30.554406 3.170101 -10.566939 3.758435 -0.001835 -0.006739 -0.000815 -4.276961 -32.955774 -6.676811 -2.341600 73.989230 0.814087 -11.698228 -10.580041 -1.379231 0.000494 0.000197 0.000219
124.539572 126.943430 30.858921 -14.116564 -28.348566 -1.263605 -2.456497 14.573547 1.593149 -0.244087 1.317355 0.170375 -0.399866 2.221721 0.282689 -2.217116 13.033581 1.454861 1.539975 16.572751 -1.115567 3.228900 -4.977263 -2.594810 -1.841244 -5.098560 -4.730680 8.006407 -14.388999 -7.157518 27.179236 -38.249681 2.444008 5.418443 7.589988 -17.918238 -2.835583 -7.069234 -1.955539 -0.832276 -4.024149 3.483325 -35.709974 -47.752115 12.278926 -23.781925 9.677763 16.632979 -4.625676 -40.180983 -2.835058 -30.890922 79.738892 -30.577057 3.167655 -10.567815 3.759961 0.000339 -0.007673 0.000151 -4.280145 -32.961772 -6.675246 -2.349109 73.988485 0.808314 -11.723069 -10.578630 -1.377535 -0.000816 0.000244 -0.000362
